<svg width="1036" height="525" viewBox="0 0 1036 525" fill="none" xmlns="http://www.w3.org/2000/svg">
<mask id="mask0_27_53" style="mask-type:alpha" maskUnits="userSpaceOnUse" x="0" y="0" width="1036" height="525">
<rect x="451.165" y="524.953" width="4.36374" height="524.108" transform="rotate(-180 451.165 524.953)" fill="#D9D9D9"/>
<rect x="1.59082" y="227.498" width="4.36374" height="1034.29" transform="rotate(-90 1.59082 227.498)" fill="#D9D9D9"/>
<rect x="748.62" y="524.952" width="4.36374" height="524.108" transform="rotate(-180 748.62 524.952)" fill="#D9D9D9"/>
<rect x="153.71" y="524.953" width="4.36374" height="524.108" transform="rotate(-180 153.71 524.953)" fill="#D9D9D9"/>
<rect x="1.58887" y="376.226" width="4.36374" height="1034.29" transform="rotate(-90 1.58887 376.226)" fill="#D9D9D9"/>
<rect x="897.348" y="524.953" width="4.36374" height="524.108" transform="rotate(-180 897.348 524.953)" fill="#D9D9D9"/>
<rect x="302.438" y="524.953" width="4.36374" height="524.108" transform="rotate(-180 302.438 524.953)" fill="#D9D9D9"/>
<rect x="1.58984" y="78.7709" width="4.36374" height="1034.29" transform="rotate(-90 1.58984 78.7709)" fill="#D9D9D9"/>
<rect x="1.58984" y="524.953" width="4.36374" height="1034.29" transform="rotate(-90 1.58984 524.953)" fill="#D9D9D9"/>
<rect x="599.893" y="524.952" width="4.36374" height="524.108" transform="rotate(-180 599.893 524.952)" fill="#D9D9D9"/>
<rect x="4.98242" y="524.953" width="4.36374" height="524.108" transform="rotate(-180 4.98242 524.953)" fill="#D9D9D9"/>
<rect x="1.58984" y="450.59" width="4.36374" height="1034.29" transform="rotate(-90 1.58984 450.59)" fill="#D9D9D9"/>
<rect x="971.712" y="524.952" width="4.36374" height="524.108" transform="rotate(-180 971.712 524.952)" fill="#D9D9D9"/>
<rect x="376.802" y="524.953" width="4.36374" height="524.108" transform="rotate(-180 376.802 524.953)" fill="#D9D9D9"/>
<rect x="1.59082" y="153.135" width="4.36374" height="1034.29" transform="rotate(-90 1.59082 153.135)" fill="#D9D9D9"/>
<rect x="674.257" y="524.951" width="4.36374" height="524.108" transform="rotate(-180 674.257 524.951)" fill="#D9D9D9"/>
<rect x="79.3467" y="524.953" width="4.36374" height="524.108" transform="rotate(-180 79.3467 524.953)" fill="#D9D9D9"/>
<rect x="1.58984" y="301.862" width="4.36374" height="1034.29" transform="rotate(-90 1.58984 301.862)" fill="#D9D9D9"/>
<rect x="822.984" y="524.952" width="4.36374" height="524.108" transform="rotate(-180 822.984 524.952)" fill="#D9D9D9"/>
<rect x="228.074" y="524.953" width="4.36374" height="524.108" transform="rotate(-180 228.074 524.953)" fill="#D9D9D9"/>
<rect x="1.59082" y="4.40717" width="4.36374" height="1034.29" transform="rotate(-90 1.59082 4.40717)" fill="#D9D9D9"/>
<rect x="1.59082" y="450.59" width="4.36374" height="1034.29" transform="rotate(-90 1.59082 450.59)" fill="#D9D9D9"/>
<rect x="525.529" y="524.952" width="4.36374" height="524.108" transform="rotate(-180 525.529 524.952)" fill="#D9D9D9"/>
</mask>
<g mask="url(#mask0_27_53)">
<path d="M1035.88 524.953L0.618652 524.953L0.618698 0.84543L1035.88 0.84552L1035.88 524.953Z" fill="url(#paint0_linear_27_53)"/>
</g>
<defs>
<linearGradient id="paint0_linear_27_53" x1="518.25" y1="524.953" x2="518.25" y2="0.845444" gradientUnits="userSpaceOnUse">
<stop stop-color="#E085DD"/>
<stop offset="1" stop-color="#23ADD8" stop-opacity="0"/>
</linearGradient>
</defs>
</svg>
